<?xml version="1.0" encoding="utf-8"?>
<!-- Generator: Adobe Illustrator 15.0.2, SVG Export Plug-In . SVG Version: 6.00 Build 0)  -->
<!DOCTYPE svg PUBLIC "-//W3C//DTD SVG 1.1//EN" "http://www.w3.org/Graphics/SVG/1.1/DTD/svg11.dtd">
<svg version="1.1" id="Layer_1" xmlns="http://www.w3.org/2000/svg" xmlns:xlink="http://www.w3.org/1999/xlink" x="0px" y="0px"
	 width="400px" height="400px" viewBox="0 0 400 400" enable-background="new 0 0 400 400" xml:space="preserve">
<circle fill="#FF871B" cx="200.031" cy="200" r="200"/>
<g enable-background="new    ">
	<path fill="#FFFFFF" d="M167.095,307.473c0.913,1.065,2.148,1.599,3.708,1.599c1.559,0,2.796-0.531,3.708-1.599
		c0.913-1.062,1.369-2.51,1.369-4.336v-11.039h3.366v11.183c0,2.873-0.79,5.084-2.368,6.634c-1.579,1.55-3.604,2.323-6.076,2.323
		c-2.472,0-4.498-0.773-6.076-2.323c-1.579-1.55-2.368-3.761-2.368-6.634v-11.183h3.366v11.039
		C165.726,304.963,166.182,306.408,167.095,307.473z"/>
	<path fill="#FFFFFF" d="M190.557,294.723c-0.98,0-1.783,0.199-2.411,0.601s-0.941,1.003-0.941,1.812
		c0,0.811,0.314,1.428,0.941,1.854c0.627,0.429,1.963,0.89,4.008,1.384c2.044,0.495,3.584,1.188,4.621,2.082
		c1.037,0.896,1.555,2.211,1.555,3.95s-0.656,3.151-1.968,4.235s-3.033,1.627-5.163,1.627c-3.119,0-5.886-1.073-8.301-3.225
		l2.111-2.539c2.016,1.75,4.107,2.625,6.275,2.625c1.084,0,1.944-0.231,2.582-0.699c0.638-0.466,0.956-1.084,0.956-1.854
		c0-0.771-0.299-1.369-0.898-1.797c-0.599-0.429-1.631-0.817-3.095-1.17c-1.465-0.354-2.577-0.677-3.338-0.972
		c-0.761-0.294-1.436-0.68-2.025-1.153c-1.18-0.896-1.769-2.265-1.769-4.107s0.67-3.268,2.011-4.266s3-1.496,4.978-1.496
		c1.273,0,2.539,0.209,3.793,0.627c1.255,0.419,2.339,1.009,3.252,1.77l-1.797,2.538c-0.59-0.532-1.389-0.97-2.396-1.312
		C192.53,294.895,191.536,294.723,190.557,294.723z"/>
	<path fill="#FFFFFF" d="M216.5,292.098v3.166h-10.641v5.277h9.557v2.995h-9.557v5.335h10.981v3.166h-14.349v-19.939H216.5
		L216.5,292.098z"/>
	<path fill="#FFFFFF" d="M237.066,298.573c0,3.29-1.438,5.361-4.309,6.219l5.223,7.245h-4.279l-4.764-6.703h-4.422v6.703h-3.365
		v-19.939h7.416c3.043,0,5.221,0.514,6.533,1.541C236.412,294.665,237.066,296.311,237.066,298.573z M232.589,301.396
		c0.685-0.591,1.026-1.535,1.026-2.839c0-1.303-0.352-2.196-1.055-2.683c-0.703-0.482-1.959-0.729-3.768-0.729h-4.277v7.133h4.191
		C230.611,302.281,231.904,301.986,232.589,301.396z"/>
</g>
<path id="user-14-icon" fill="#FFFFFF" d="M364.622,248.002h-64.083c-0.004-69.745-34.867-36.595-34.867-97.714
	c0-22.062,14.444-34.035,32.991-34.035c27.401,0,46.47,26.163,20.521,75.086c-8.521,16.073,9.08,19.892,27.99,24.254
	C366.076,219.954,364.622,229.92,364.622,248.002z M51.825,215.596c18.911-4.361,36.514-8.182,27.989-24.255
	c-25.949-48.923-6.879-75.087,20.524-75.087c18.546,0,32.989,11.974,32.989,34.037c0,61.117-34.862,27.968-34.865,97.713H34.378
	C34.378,229.92,32.922,219.954,51.825,215.596z"/>
<path id="user-8-icon" fill="#FFFFFF" d="M210.744,248.004h77.979c0.002-24.461,1.967-37.941-23.602-43.84
	c-25.579-5.899-49.391-11.067-37.859-32.808c35.104-66.177,9.305-101.567-27.762-101.567c-37.796,0-62.959,36.748-27.763,101.567
	c11.877,21.874-12.828,27.035-37.858,32.808c-25.57,5.896-23.604,19.379-23.604,43.84h77.978H210.744z"/>
</svg>
